<svg width="332" height="55" viewBox="0 0 332 55" fill="none" xmlns="http://www.w3.org/2000/svg">
<path d="M92.0835 32.2604C86.5557 28.3298 77.9332 31.7301 73.5774 33.4384C71.6525 34.1933 70.009 35.0495 65.892 36.5736C62.9773 37.6503 60.5464 38.4275 58.9312 38.9173C58.1297 37.116 57.8463 35.1466 58.0771 33.0073C58.741 26.9859 61.4552 22.2275 66.224 18.7341C70.5231 15.5787 74.1603 13.3401 77.1357 12.0144C78.4999 11.4052 79.3683 9.56539 79.0727 8.19717C79.0039 7.88548 78.9108 7.45032 78.5607 7.25601C77.498 6.66298 75.5833 9.0513 71.3023 11.638C70.1749 12.318 69.3147 12.6945 68.7217 12.7653C65.2463 13.1418 62.2264 12.148 59.6639 9.78398C59.413 9.53098 59.3684 9.29822 59.5283 9.08368C62.7547 4.99724 66.6612 3.41245 71.2497 4.32527C72.1261 4.5054 72.369 4.31717 71.9743 3.7626C71.3469 2.86597 70.2761 1.97339 68.7621 1.08688C67.2481 0.198347 65.9527 0.0161878 64.8779 0.536354C62.6393 1.62931 60.676 3.7626 58.992 6.93217C58.2208 8.34897 57.7633 9.91756 57.6196 11.638C57.567 12.2816 57.7289 12.8645 58.1034 13.3847C59.0183 14.6578 60.9168 15.8661 63.8032 17.0137C59.162 21.5474 56.7068 27.8724 56.4376 35.9906C56.3971 37.2111 56.4517 38.3628 56.5995 39.4416C56.0409 39.5751 55.2211 39.7431 54.2172 39.8322C51.9887 40.0305 49.578 40.2451 47.8555 38.8607C46.4508 37.7313 46.0845 36.0089 45.8315 34.8127C45.7282 34.331 45.706 32.8251 45.6898 29.8154C45.6817 28.2388 45.6776 27.7975 45.6776 26.9616C45.6796 25.6764 45.6898 24.8344 45.6898 24.1806C45.6898 21.596 45.6898 20.3047 45.6898 20.3047C45.6898 20.3047 45.5602 10.6583 45.6898 6.94634C45.6958 6.74799 45.6999 5.86553 44.9409 5.24416C44.6069 4.97093 44.1859 4.82115 43.7548 4.79281C42.6031 4.71792 41.6295 5.42025 41.0344 6.43427L24.5686 36.523L8.10482 6.43427C7.59273 5.46883 6.62725 4.78674 5.6051 4.78674C4.52829 4.78674 3.44946 5.5255 3.44946 6.94432V42.3723C3.44946 43.6778 4.52829 44.8699 5.89049 44.8699C7.25269 44.8699 8.33152 43.6778 8.33152 42.3723V15.8033L22.4676 41.9189C22.9797 42.8277 23.7165 43.3377 24.5686 43.3377C25.4207 43.3377 26.2162 42.8844 26.7263 41.9189L40.8077 15.8033C40.8077 17.7788 40.8077 19.7542 40.8077 21.7296C40.8077 24.97 40.8077 26.5912 40.8077 26.5932C40.8077 30.0786 40.7875 30.5846 40.7976 31.0562C40.7976 31.0562 40.8016 31.1999 40.8077 31.3476C41.0061 36.2072 41.7833 38.0531 41.7833 38.0531C42.9391 40.7976 45.5015 42.1355 45.8315 42.3035C48.1733 43.4875 50.4726 43.2183 53.1181 42.9107C54.8284 42.7123 56.2149 42.344 57.1622 42.0444C57.7795 43.5806 58.9292 45.9244 61.0545 48.1447C68.6893 56.1132 83.6451 56.9511 91.5572 50.2477C92.7352 49.2498 96.2369 46.2806 96.5 41.6234C96.7044 38.0288 94.9313 34.2864 92.0835 32.2604ZM88.7174 41.8319C88.6871 42.1274 88.5535 43.024 87.6811 44.1716C86.4201 45.8313 84.645 46.6551 83.3537 47.0902C79.5808 48.3613 73.0491 48.6487 66.4183 45.4083C64.882 44.6554 62.7203 43.4126 60.425 41.3785C61.4087 41.0871 62.9106 40.6317 64.7363 40.0427C69.7337 38.4295 70.2944 38.0207 73.0451 37.203C77.9474 35.7457 80.5908 34.9989 83.6674 35.9421C84.5539 36.2133 86.9363 36.9581 88.0859 39.0975C88.2661 39.4314 88.845 40.5365 88.7174 41.8319Z" fill="#FF731D"/>
<path d="M103.487 0H102.412V55H103.487V0Z" fill="black"/>
<path d="M130.382 18.4184V33.7542C130.382 34.3189 129.915 34.835 129.326 34.835C128.761 34.835 128.269 34.3189 128.269 33.7542V22.2518L122.175 33.5578C121.954 33.9748 121.61 34.1731 121.242 34.1731C120.873 34.1731 120.554 33.9525 120.333 33.5578L114.212 22.2518V33.7542C114.212 34.3189 113.745 34.835 113.156 34.835C112.567 34.835 112.099 34.3189 112.099 33.7542V18.4184C112.099 17.8031 112.567 17.4853 113.032 17.4853C113.475 17.4853 113.892 17.7808 114.113 18.1977L121.24 31.2242L128.366 18.1977C128.611 17.7808 129.006 17.4853 129.472 17.4853C129.937 17.4853 130.382 17.8031 130.382 18.4184Z" fill="black"/>
<path d="M148.202 33.8776C148.202 34.3937 147.759 34.8613 147.17 34.8613C146.727 34.8613 146.358 34.5658 146.186 34.1974L144.442 30.1676H136.479L134.734 34.1974C134.562 34.5658 134.194 34.8613 133.751 34.8613C133.162 34.8613 132.718 34.3937 132.718 33.8776C132.718 33.6813 132.767 33.485 132.842 33.3372L139.428 18.2463C139.649 17.7545 139.944 17.459 140.46 17.459C140.976 17.459 141.272 17.7545 141.468 18.2463L148.079 33.3372C148.154 33.4829 148.202 33.6813 148.202 33.8776ZM143.705 28.4695L140.46 20.9241L137.216 28.4695H143.705Z" fill="black"/>
<path d="M162.632 33.8776C162.632 34.418 162.239 34.837 161.699 34.837C161.355 34.837 161.084 34.6649 160.911 34.4443L156.046 28.3238H152.629V33.829C152.629 34.3937 152.161 34.8855 151.597 34.8855C151.008 34.8855 150.54 34.3937 150.54 33.829V18.6895C150.54 18.0257 151.008 17.5581 151.672 17.5581H156.169C160.003 17.5581 162.411 19.8189 162.411 22.9156C162.411 25.5691 160.839 27.4615 158.209 28.1011L162.387 33.1894C162.533 33.3858 162.632 33.6307 162.632 33.8776ZM152.627 26.5042H156.116C158.721 26.5042 160.369 25.3728 160.369 22.9156C160.369 20.6063 158.721 19.3757 156.116 19.3757H152.627V26.5042Z" fill="black"/>
<path d="M178.78 33.9262C178.78 34.4423 178.337 34.8855 177.821 34.8855C177.549 34.8855 177.28 34.7378 177.132 34.5657L170.178 27.0203L167.18 30.0927V33.829C167.18 34.3937 166.688 34.8855 166.123 34.8855C165.559 34.8855 165.091 34.3694 165.091 33.8047V18.4932C165.091 17.9285 165.559 17.4367 166.123 17.4367C166.688 17.4367 167.18 17.9285 167.18 18.4932V27.3401L176.495 17.7787C176.691 17.6067 176.938 17.4347 177.232 17.4347C177.772 17.4347 178.191 17.8779 178.191 18.394C178.191 18.6389 178.118 18.8616 177.97 19.0336L171.481 25.6946L178.535 33.2886C178.681 33.4586 178.78 33.6813 178.78 33.9262Z" fill="black"/>
<path d="M191.167 32.9182C191.659 32.9182 192.1 33.3109 192.1 33.827C192.1 34.3431 191.657 34.76 191.167 34.76H182.122C181.458 34.76 180.992 34.2925 180.992 33.6286V18.6855C180.992 18.0216 181.46 17.5541 182.122 17.5541H190.92C191.412 17.5541 191.853 17.971 191.853 18.4629C191.853 19.0033 191.41 19.3959 190.92 19.3959H183.079V25.221H188.609C189.101 25.221 189.518 25.6379 189.518 26.1055C189.518 26.5973 189.101 26.9899 188.609 26.9899H183.079V32.9121H191.167V32.9182Z" fill="black"/>
<path d="M206.111 18.4669C206.111 19.0073 205.668 19.4 205.178 19.4H200.95V33.7784C200.95 34.3694 200.482 34.8835 199.917 34.8835C199.328 34.8835 198.861 34.3674 198.861 33.7784V19.4H194.608C194.116 19.4 193.699 19.0073 193.699 18.4669C193.699 17.9751 194.116 17.5581 194.608 17.5581H205.176C205.67 17.5581 206.111 17.9751 206.111 18.4669Z" fill="black"/>
<path d="M210.438 18.5661V33.8047C210.438 34.3694 209.971 34.8855 209.406 34.8855C208.791 34.8855 208.325 34.3694 208.325 33.8047V18.5661C208.325 17.9771 208.793 17.4853 209.406 17.4853C209.971 17.4832 210.438 17.9751 210.438 18.5661Z" fill="black"/>
<path d="M227.127 18.5661V33.8776C227.127 34.5172 226.659 34.8613 226.167 34.8613C225.724 34.8613 225.406 34.6649 225.087 34.246L215.501 21.3187V33.7784C215.501 34.3431 215.009 34.8592 214.444 34.8592C213.879 34.8592 213.388 34.3431 213.388 33.7784V18.4669C213.388 17.8273 213.855 17.4832 214.347 17.4832C214.79 17.4832 215.108 17.6796 215.428 18.0985L225.014 31.0258V18.5641C225.014 17.9994 225.506 17.4832 226.07 17.4832C226.635 17.4832 227.127 17.9994 227.127 18.5661Z" fill="black"/>
<path d="M246.224 27.2409C246.028 32.1309 242.587 34.9341 238.506 34.9341C234.13 34.9341 229.829 31.3456 229.829 26.1601C229.829 20.9746 234.106 17.3861 238.48 17.3861C240.249 17.3861 241.724 17.9022 242.929 18.7624C243.494 19.1551 243.789 19.4992 243.789 19.991C243.789 20.5557 243.346 20.9241 242.83 20.9241C242.413 20.9241 242.117 20.7034 241.797 20.4565C241.109 19.8918 239.856 19.3514 238.456 19.3514C235.162 19.3514 231.991 22.2032 231.991 26.1601C231.991 30.117 235.162 32.9688 238.504 32.9688C241.405 32.9688 243.886 31.0278 244.182 27.7834H240.077C239.561 27.7834 239.142 27.3907 239.142 26.8989C239.142 26.4071 239.559 26.0144 240.077 26.0144H245.139C245.904 26.0124 246.248 26.5285 246.224 27.2409Z" fill="black"/>
<path d="M264.028 39.7209C263.957 39.5569 263.862 39.4132 263.744 39.2897C263.625 39.1663 263.483 39.0691 263.323 38.9983C263.163 38.9295 262.991 38.893 262.811 38.893C262.621 38.893 262.445 38.9295 262.281 38.9983C262.115 39.0691 261.971 39.1663 261.848 39.2897C261.724 39.4132 261.625 39.5569 261.552 39.7209C261.477 39.8848 261.441 40.0629 261.441 40.2532C261.441 40.4414 261.477 40.6155 261.552 40.7774C261.625 40.9373 261.724 41.0769 261.848 41.1963C261.971 41.3158 262.115 41.4109 262.281 41.4797C262.445 41.5505 262.621 41.585 262.811 41.585C262.991 41.585 263.163 41.5505 263.323 41.4797C263.483 41.4109 263.625 41.3158 263.744 41.1963C263.862 41.0769 263.957 40.9373 264.028 40.7774C264.097 40.6155 264.133 40.4414 264.133 40.2532C264.133 40.0629 264.097 39.8848 264.028 39.7209ZM260.805 39.7209C260.735 39.5569 260.639 39.4132 260.514 39.2897C260.39 39.1663 260.247 39.0691 260.083 38.9983C259.919 38.9295 259.745 38.893 259.565 38.893C259.382 38.893 259.212 38.9295 259.053 38.9983C258.891 39.0691 258.749 39.1663 258.625 39.2897C258.502 39.4132 258.403 39.5569 258.33 39.7209C258.255 39.8848 258.219 40.0629 258.219 40.2532C258.219 40.4414 258.255 40.6155 258.33 40.7774C258.403 40.9373 258.502 41.0769 258.625 41.1963C258.749 41.3158 258.891 41.4109 259.053 41.4797C259.212 41.5505 259.382 41.585 259.565 41.585C259.745 41.585 259.919 41.5505 260.083 41.4797C260.247 41.4109 260.39 41.3158 260.514 41.1963C260.639 41.0769 260.735 40.9373 260.805 40.7774C260.874 40.6155 260.911 40.4414 260.911 40.2532C260.911 40.0629 260.874 39.8848 260.805 39.7209Z" fill="black"/>
<path d="M274.788 21.5656V27.7833C274.788 28.2104 274.703 28.6132 274.535 28.9917C274.365 29.3722 274.138 29.7041 273.848 29.9935C273.504 30.3376 273.098 30.6088 272.632 30.8011C272.169 30.9954 271.652 31.0905 271.084 31.0905H268.792C268.728 31.0905 268.665 31.0845 268.602 31.0723V31.0905C268.323 31.0905 268.058 31.0845 267.811 31.0723C267.564 31.0602 267.331 31.046 267.108 31.0298C267.165 31.1452 267.216 31.2585 267.256 31.3698C267.297 31.4812 267.331 31.5925 267.355 31.7078C267.42 31.9811 267.454 32.2402 267.454 32.4871C267.454 32.6187 267.444 32.7462 267.428 32.8696C267.38 33.24 267.284 33.5861 267.145 33.9059C266.973 34.2844 266.75 34.6305 266.479 34.9442C266.157 35.3308 265.791 35.6648 265.38 35.9501C264.967 36.2335 264.522 36.4703 264.04 36.6585C263.558 36.8488 263.058 36.9885 262.54 37.0795C262.054 37.1605 261.564 37.203 261.071 37.203H260.935C260.309 37.1868 259.69 37.1018 259.077 36.95C258.464 36.7962 257.881 36.5695 257.33 36.2639C256.802 35.9765 256.322 35.6243 255.885 35.2094C255.448 34.7924 255.083 34.3046 254.786 33.746C254.555 33.3169 254.373 32.8474 254.237 32.3312C254.102 31.8171 254.025 31.2605 254.009 30.6594V30.4368C254.009 29.9025 254.057 29.3337 254.156 28.7326C254.213 28.3723 254.292 27.9958 254.395 27.6093C254.557 27.0061 255.148 26.6195 255.763 26.7228L255.956 26.7551C256.64 26.8705 257.093 27.5425 256.929 28.2185C256.743 28.9815 256.65 29.6798 256.65 30.3133V30.5238C256.682 31.5358 256.889 32.392 257.267 33.0923C257.482 33.4869 257.731 33.8229 258.014 34.1043C258.3 34.3836 258.613 34.6184 258.959 34.8066C259.279 34.9806 259.615 35.1122 259.965 35.2033C260.316 35.2923 260.664 35.3429 261.008 35.351H261.131C261.708 35.351 262.261 35.2438 262.787 35.0292C263.346 34.8066 263.815 34.4706 264.194 34.0172C264.368 33.8189 264.507 33.6023 264.615 33.3635C264.704 33.1651 264.766 32.9506 264.799 32.7219C264.807 32.6551 264.811 32.5903 264.811 32.5235C264.811 32.3596 264.787 32.1936 264.738 32.0297C264.671 31.7746 264.552 31.5156 264.38 31.2525C264.206 30.9893 263.955 30.7161 263.627 30.4368C263.362 30.2141 263.044 29.9935 262.67 29.7709C262.666 29.7689 262.661 29.7668 262.657 29.7628C262.006 29.3782 261.854 28.5018 262.35 27.9291L262.712 27.5101L262.763 27.5243L262.787 27.5364C263.05 27.6437 263.301 27.7489 263.54 27.8562C263.779 27.9635 264.01 28.0667 264.23 28.1659C264.568 28.3217 264.892 28.4634 265.2 28.5909C265.509 28.7184 265.829 28.8297 266.163 28.9249C266.497 29.02 266.859 29.0929 267.25 29.1475C267.641 29.2001 268.092 29.2264 268.602 29.2264V29.2447C268.665 29.2325 268.728 29.2264 268.792 29.2264H271.096C271.294 29.2264 271.49 29.1293 271.689 28.9309C271.828 28.7913 271.94 28.6233 272.023 28.431C272.104 28.2367 272.144 28.0222 272.144 27.7833H272.132V21.5656C272.132 21.0515 272.551 20.6346 273.065 20.6346H273.855C274.371 20.6346 274.788 21.0515 274.788 21.5656Z" fill="black"/>
<path d="M272.46 34.252C272.389 34.0881 272.294 33.9424 272.171 33.8189C272.047 33.6954 271.901 33.6003 271.737 33.5295C271.573 33.4606 271.399 33.4242 271.219 33.4242C271.039 33.4242 270.867 33.4606 270.707 33.5295C270.547 33.6003 270.404 33.6954 270.28 33.8189C270.157 33.9424 270.059 34.0881 269.985 34.252C269.91 34.416 269.873 34.5941 269.873 34.7823C269.873 34.9726 269.91 35.1466 269.985 35.3065C270.059 35.4685 270.157 35.6081 270.28 35.7275C270.404 35.8469 270.547 35.9421 270.707 36.0109C270.867 36.0817 271.039 36.1161 271.219 36.1161C271.399 36.1161 271.573 36.0817 271.737 36.0109C271.901 35.9421 272.047 35.8469 272.171 35.7275C272.294 35.6081 272.389 35.4685 272.46 35.3065C272.531 35.1466 272.565 34.9726 272.565 34.7823C272.565 34.5941 272.531 34.416 272.46 34.252Z" fill="black"/>
<path d="M317.915 16.7445V27.7833C317.915 28.2104 317.83 28.6132 317.659 28.9917C317.491 29.3722 317.263 29.7041 316.975 29.9935C316.637 30.3376 316.235 30.6088 315.765 30.8011C315.295 30.9954 314.781 31.0905 314.223 31.0905H282.639C282.599 31.7666 282.503 32.3636 282.356 32.8818C282.208 33.3999 282.01 33.8573 281.763 34.252C281.516 34.6467 281.228 34.9847 280.898 35.264C280.57 35.5433 280.204 35.7781 279.799 35.9684C279.396 36.1647 278.977 36.3185 278.54 36.4258C278.105 36.531 277.656 36.61 277.194 36.6586C276.735 36.7092 276.263 36.7375 275.781 36.7456C275.607 36.7496 275.431 36.7517 275.255 36.7537C274.741 36.7577 274.318 36.3428 274.318 35.8267C274.318 35.5737 274.421 35.343 274.587 35.175C274.753 35.009 274.982 34.9038 275.235 34.9017C275.316 34.9017 275.395 34.9017 275.472 34.8997C275.848 34.8957 276.205 34.8774 276.547 34.8451C276.889 34.8106 277.206 34.7641 277.504 34.7034C277.799 34.6406 278.067 34.5516 278.305 34.4362C278.536 34.331 278.751 34.1832 278.949 33.999C279.145 33.8128 279.316 33.5821 279.461 33.3068C279.605 33.0316 279.722 32.7057 279.813 32.3313C279.902 31.9568 279.961 31.5196 279.985 31.0177V21.5596C279.985 21.0475 280.4 20.6346 280.91 20.6346H281.714C282.226 20.6346 282.639 21.0475 282.639 21.5596V29.2265H314.235C314.423 29.2265 314.617 29.1293 314.814 28.9309C314.955 28.7913 315.067 28.6233 315.148 28.431C315.231 28.2367 315.271 28.0222 315.271 27.7833V16.7445C315.271 16.2344 315.686 15.8195 316.196 15.8195H316.987C317.5 15.8195 317.915 16.2344 317.915 16.7445Z" fill="black"/>
<path d="M332 21.9542V27.7833C332 28.2104 331.917 28.6132 331.747 28.9917C331.579 29.3722 331.35 29.7041 331.063 29.9935C330.717 30.3376 330.312 30.6088 329.846 30.8011C329.381 30.9954 328.865 31.0905 328.298 31.0905H324.074C323.523 31.0905 323.011 30.9954 322.537 30.8011C322.064 30.6088 321.659 30.3376 321.321 29.9935C321.034 29.7041 320.805 29.3722 320.637 28.9917C320.467 28.6132 320.382 28.2104 320.382 27.7833V17.1412C320.382 16.4105 320.975 15.8195 321.704 15.8195C322.434 15.8195 323.025 16.4105 323.025 17.1412V27.7833C323.025 28.0222 323.066 28.2367 323.149 28.431C323.23 28.6233 323.341 28.7913 323.481 28.931C323.695 29.1293 323.89 29.2265 324.062 29.2265H328.31C328.506 29.2265 328.705 29.1293 328.901 28.931C329.041 28.7913 329.152 28.6233 329.235 28.431C329.318 28.2367 329.359 28.0222 329.359 27.7833H329.346V21.9542C329.346 21.2256 329.937 20.6346 330.668 20.6346H330.68C331.409 20.6346 332 21.2256 332 21.9542Z" fill="black"/>
<path d="M329.674 34.252C329.604 34.0881 329.506 33.9424 329.383 33.8189C329.259 33.6954 329.116 33.6003 328.952 33.5295C328.786 33.4606 328.614 33.4242 328.434 33.4242C328.251 33.4242 328.081 33.4606 327.919 33.5295C327.76 33.6003 327.618 33.6954 327.494 33.8189C327.371 33.9424 327.272 34.0881 327.199 34.252C327.124 34.416 327.088 34.5941 327.088 34.7823C327.088 34.9726 327.124 35.1466 327.199 35.3065C327.272 35.4685 327.371 35.6081 327.494 35.7275C327.618 35.8469 327.76 35.9421 327.919 36.0109C328.081 36.0817 328.251 36.1161 328.434 36.1161C328.614 36.1161 328.786 36.0817 328.952 36.0109C329.116 35.9421 329.259 35.8469 329.383 35.7275C329.506 35.6081 329.604 35.4685 329.674 35.3065C329.743 35.1466 329.778 34.9726 329.778 34.7823C329.778 34.5941 329.743 34.416 329.674 34.252Z" fill="black"/>
<path d="M298.069 17.3092C298.791 16.9611 299.659 17.0845 300.678 17.6796C301.696 18.2746 302.414 18.8737 302.835 19.4769C303.1 19.8493 302.938 19.9768 302.347 19.8554C299.265 19.2421 296.642 20.3067 294.474 23.0513C294.366 23.195 294.395 23.3528 294.565 23.5208C296.287 25.1097 298.315 25.7776 300.651 25.5246C301.048 25.476 301.627 25.223 302.386 24.7656C305.264 23.029 306.549 21.424 307.262 21.8227C307.497 21.9543 307.559 22.2457 307.606 22.4542C307.804 23.3731 307.221 24.6097 306.306 25.0186C304.309 25.9091 301.864 27.415 298.975 29.5321C295.773 31.8799 293.95 35.0758 293.504 39.1197C293.276 41.2389 293.8 43.1111 295.075 44.7363C297.097 47.3007 301.671 48.4625 308.8 48.2216C310.727 48.1609 313.249 47.8492 316.366 47.2825C316.631 47.2339 316.787 47.2825 316.836 47.4262C316.955 47.7986 315.619 48.6831 312.826 50.0817C311.261 50.865 310.045 51.2981 309.179 51.3811C305.556 51.7535 302.58 51.6766 300.259 51.1463C294.84 49.9178 292.223 46.5782 292.403 41.1235C292.583 35.6709 294.233 31.4205 297.352 28.3744C295.413 27.6032 294.138 26.7916 293.524 25.9375C293.271 25.5894 293.164 25.1967 293.199 24.7636C293.296 23.6079 293.601 22.5554 294.12 21.6041C295.245 19.4769 296.563 18.0439 298.069 17.3092Z" fill="#FF731D"/>
</svg>
